<svg xmlns="http://www.w3.org/2000/svg" id="Imagem_site_RH" width="447" height="274.294" viewBox="0 0 447 274.294">
    <defs>
        <style>
            .cls-1{fill:#4e306f}.cls-2{fill:#fbd5bd}.cls-3{fill:#ff95a9}.cls-5{fill:#b3a4f5}.cls-7{fill:#40327a}.cls-8{fill:#fff}.cls-9{fill:#624ac9}.cls-10{fill:#7760db}.cls-13{fill:#ddd6ff}.cls-14{fill:#c4b8ff}.cls-15{fill:#f8f7ff}
        </style>
    </defs>
    <g id="people">
        <path id="Caminho_38290" d="M335.925 378.7h5.229l-2.079-16.8-.528.132a2.638 2.638 0 0 1-1.3-5.113l.528-.132a16.146 16.146 0 0 0 8.616-5.567 20.641 20.641 0 0 1 8.97-6.458l4.221 13.165a8.558 8.558 0 0 1-6.036 10.9l-1.857.47 1.055 8.669a6.614 6.614 0 0 1 .037.718h1.135l4.29-2.279a13.123 13.123 0 0 1 .369-3.166 10.445 10.445 0 0 1 1.008-2.665 21.037 21.037 0 0 0 2.517-2.907c.127-.185.253-.364.375-.528a21.47 21.47 0 1 0-39.257-10.854 3.63 3.63 0 0 0 .042.675 21.549 21.549 0 0 0 .665 3.773 10.374 10.374 0 0 1-.528 2.833 11.8 11.8 0 0 1-2.264 4.221l14.122 10.913z" class="cls-1" transform="translate(-228.725 -297.407)"/>
        <path id="Caminho_38291" d="M320.257 463.184l1.324-1.029-13.117-33.432a5.906 5.906 0 0 1-.675-.586l-.037-.042-4.6-4.612-.375.369-9.809-9.883a12.771 12.771 0 0 0-.528 1.446c-2.543 7.952.955 9.255-1.266 17.3-.9 3.261-3.118 5.023-5.345 6.859a19.983 19.983 0 0 0-5.92 7.514c-3.472 8.089-.359 23.491 20.715 23.491h14a18.23 18.23 0 0 1 5.63-7.392z" class="cls-1" transform="translate(-208.67 -335.663)"/>
        <path id="Caminho_38292" d="M478.183 347.823a2.784 2.784 0 0 0-3.874.179l-3.969 4.098 4.847 4.835 3.449-4.618a3.374 3.374 0 0 0 .635-2.347 3.266 3.266 0 0 0-1.088-2.147z" class="cls-2" transform="translate(-299.238 -305.446)"/>
        <path id="Caminho_38293" d="M305.41 258.67l7.318 6.738-7.318-6.738z" class="cls-3" transform="translate(-157.007 -189.744)"/>
        <path id="Caminho_38295" d="M331.375 505.29l-1.324 1.029a18.272 18.272 0 0 0-7.06 14.426v5.276a3.367 3.367 0 0 0 .026.528l2.733 36.74-3.387 8.748.491.19-9.387 24.193-.491-.19-.939 2.422.491.19-.633 1.63-.491-.19-1.725 4.459.491.19-8.226 21.248-.491-.19-1.815 4.728a3.344 3.344 0 0 0-.237 1.24h6.859l.285.158 30.635-65.37a5.968 5.968 0 0 0 .565-2.528v-30.809h10.325l.412-.327 4.68 5.978-.417.322 1.214 1.546.417-.322 19.961 25.49v5.889h-.528v1.583h.528V586.2h-.528v45.73h6.859l5.018-66.921a6.082 6.082 0 0 0 .037-.776 5.932 5.932 0 0 0-1.055-3.388l-25.633-37.115v-4.923a30.4 30.4 0 0 0-3.163-13.5l-24.5-.007z" class="cls-1" transform="translate(-218.459 -379.396)"/>
        <path id="Caminho_38296" d="M403.385 455.427a6.332 6.332 0 0 1-4.353 9.461 6.5 6.5 0 0 1-1.583.079l-.079 1.055h.528a7.53 7.53 0 0 0 1.288-.111 7.391 7.391 0 0 0 5.1-11.044l-.142-.237-.454.269-.448.274z" class="cls-5" transform="translate(-264.752 -354.887)"/>
        <path id="Caminho_38297" d="M282.1 310.234l.454-.269.454-.269-1.029-1.736-.454.269-.454.269z" class="cls-5" transform="translate(-145.503 -213.111)"/>
        <path id="Caminho_38298" d="M368.047 352.1l-22.5 22.338-19.387 10.274-4.29 2.3h.6V399.2l-18.61-12.189h-.67l-14.076-10.931-7.155-5.556-24.8-19.254-3.91 4.416 2.775 2.8.375-.375 2.332 2.353-.375.369 3.287 3.314.375-.375 29.482 29.71-.375.375 4.6 4.627.037.042a5.918 5.918 0 0 0 .675.586l13.138 33.426h24.536a7.94 7.94 0 0 0-.053-1.124l-1.34-14.774a7.319 7.319 0 0 1-1.583.464 7.517 7.517 0 0 1-1.287.111h-.528l.079-1.055a6.5 6.5 0 0 0 1.583-.079 6.332 6.332 0 0 0 4.353-9.461l-.137-.237.448-.274-1.9-3.2-.454.269-1.029-1.752.454-.269-1.652-2.786-.116-1.282 20.446-14.5a4.895 4.895 0 0 0 1.055-.955l-7.366-6.754 7.313 6.738 19.749-24.175.452-.249-4.549-5.095z" class="cls-5" transform="translate(-196.614 -305.929)"/>
        <path id="Linha_307" fill="none" stroke="#ffc359" stroke-linecap="round" stroke-linejoin="round" stroke-width="0" d="M0 0L0 0" transform="translate(137.418 126.397)"/>
        <path id="Caminho_38299" d="M440.43 745.3v4.749h9.608a1.472 1.472 0 0 0 .733-2.749l-3.482-2z" class="cls-7" transform="translate(-285.103 -492.766)"/>
        <path id="Caminho_38300" d="M365.409 387.885l-1.055-8.669 1.857-.47a8.558 8.558 0 0 0 6.015-10.9l-4.221-13.165a20.641 20.641 0 0 0-8.97 6.458 16.146 16.146 0 0 1-8.616 5.551l-.528.132a2.638 2.638 0 1 0 1.3 5.113l.528-.132 2.079 16.816h-5.229l18.61 12.2v-12.2h-1.736a6.616 6.616 0 0 0-.037-.733zm-3.166-16.721l5.625-1.425a2.9 2.9 0 0 1-5.625 1.425z" class="cls-2" transform="translate(-241.376 -307.514)"/>
        <path id="Caminho_38301" d="M378.624 386.745a2.9 2.9 0 0 0 2.111-3.525l-5.625 1.425a2.9 2.9 0 0 0 3.514 2.1z" class="cls-8" transform="translate(-254.232 -321.016)"/>
        <path id="Caminho_38302" d="M299.41 745.3v4.749h9.614a1.472 1.472 0 0 0 .733-2.749l-3.176-1.841-.285-.158z" class="cls-7" transform="translate(-218.456 -492.766)"/>
        <path id="Caminho_38303" d="M242.963 342.788a2.485 2.485 0 0 0-.6-.338l-5.841-2.443a3.629 3.629 0 0 0-1.182-.285 3.7 3.7 0 1 0-.485 7.387l5.324.354 2.754 2.775 3.91-4.416z" class="cls-2" transform="translate(-186.29 -300.252)"/>
        <path id="Caminho_38304" d="M176.429 267.7l.375-.375-29.485-29.715-.375.375-.375.369 19.681 19.829 9.8 9.883z" class="cls-5" transform="translate(-81.908 -179.777)"/>
        <path id="Caminho_38305" d="M136.669 226.88l-.375.375-.375.369 2.332 2.348.375-.369.375-.369z" class="cls-5" transform="translate(-76.878 -174.667)"/>
        <path id="Caminho_38306" d="M318.6 497.35h-1.06v12.637h1.06z" class="cls-9" transform="translate(-162.739 -302.939)"/>
        <path id="Caminho_38307" d="M300.929 460.371l-19.961-25.491-.417.322-.411.327 19.734 25.206v5.524h1.055z" class="cls-9" transform="translate(-145.066 -273.358)"/>
        <path id="Caminho_38308" d="M269.808 420.62l-.417.327-.412.327 4.675 5.973.417-.327.417-.327z" class="cls-9" transform="translate(-139.79 -266.539)"/>
        <path id="Caminho_38309" d="M212.662 494.52l-.5-.19-.491-.19-9.366 24.182.491.2.5.19z" class="cls-9" transform="translate(-108.282 -301.449)"/>
        <path id="Caminho_38310" d="M200.95 544.95l-.5-.19-.491-.19-.633 1.63.5.19.491.19z" class="cls-9" transform="translate(-106.873 -325.302)"/>
        <path id="Caminho_38311" d="M189.683 556.49l-.491-.19-.5-.19-8.226 21.243.491.2.491.19z" class="cls-9" transform="translate(-97.96 -330.935)"/>
        <path id="Caminho_38312" d="M793.866 365.667a7.187 7.187 0 0 0-11.682 7.034v.106a7.167 7.167 0 0 0 2.364 3.831l-.828-1.029z" class="cls-2" transform="translate(-519.567 -311.882)"/>
        <path id="Caminho_38313" d="M777.468 334.888l11.3-11.081-4.8-4.026-17.448-43.631.338-6.675a4.164 4.164 0 0 0-.106-1.192 4.221 4.221 0 1 0-8.21 1.952l1.7 7.16 10.79 48.543a7.187 7.187 0 0 1 11.682-7.034l-10.126 9.941.828 1.029 20.889 25.881z" class="cls-2" transform="translate(-508.415 -264.924)"/>
        <path id="Caminho_38314" d="M655.83 606.95v.005z" class="cls-10" transform="translate(-395.646 -354.949)"/>
        <path id="Caminho_38316" d="M777.307 614.241l-5.013-3.081a6.037 6.037 0 0 0-.844 3.081 5.742 5.742 0 0 0 .042.675l-.037-.675z" class="cls-7" transform="translate(-514.574 -429.099)"/>
        <path id="Caminho_38317" d="M884 618.388a5.917 5.917 0 0 0 .57 1.583l5.4-2.691z" class="cls-7" transform="translate(-567.766 -431.998)"/>
        <path id="Caminho_38318" d="M872.6 637.68a4.477 4.477 0 0 0-.427-1.9l-31.743-67.117-6.965-42.887 1.155-7.2h-38.582l-.311 5.039-25.691 43.795 5.013 3.081H769.2l.037.675 3.266 66.483-5.129 2.812a1.324 1.324 0 0 0 .633 2.49H781.4V572.28l25.327-39.3h13.608l8.247 38.787 5.968-1.124-5.4 2.691 34.091 64.584-4.665 2.543a1.324 1.324 0 0 0 .633 2.49H872.6v-5.276z" class="cls-1" transform="translate(-512.355 -385.674)"/>
        <path id="Caminho_38319" fill="#006e6e" d="M847.808 451.467l4.221-26.319 8.527-19.154a10.752 10.752 0 0 0 .654-1.942 10.521 10.521 0 0 0-10.289-12.906h-11.08l-.069.665a6.6 6.6 0 0 1-13.159-.665H823.3l-17.413-14.636-11.3 11.081 16.837 20.858c.137.174.29.332.438.491l-2.638 42.518zm-3.694-10.954a7.192 7.192 0 0 1-11.186-7.466l2.638-11.608-.528-.116 3.108-13.561 1.054.238-3.108 13.561-.528-.121-.855 3.72 15.08 5.039-3.277 7.387a7.166 7.166 0 0 1-2.417 2.928z" transform="translate(-525.53 -317.907)"/>
        <path id="Caminho_38320" d="M719.225 233.846l-.005.005.216-.892z" class="cls-3" transform="translate(-425.604 -177.548)"/>
        <path id="Caminho_38322" d="M861.211 388.365a6.6 6.6 0 0 0 7.229-5.894l.069-.665 1.282-12.664.686-6.775a2.881 2.881 0 0 0 3.366-2.29 2.876 2.876 0 0 0-5.651-1.055l-.148.776-1.683 8.822a7.677 7.677 0 0 1-8.97 6.1l-1.391-.264-.681 6.7a5.679 5.679 0 0 0-.037.665 6.6 6.6 0 0 0 5.929 6.544z" class="cls-2" transform="translate(-554.197 -308.488)"/>
        <path id="Caminho_38326" d="M867.047 476.565a7.192 7.192 0 0 0 13.576 4.538l3.3-7.413-15.08-5.039" class="cls-2" transform="translate(-559.672 -361.544)"/>
        <path id="Caminho_38327" fill="#034040" d="M750.117 312.027l.512.121 3.108-13.56-1.029-.237-3.108 13.559.517.116" transform="translate(-439.963 -208.568)"/>
        <path id="Retângulo_984" d="M0 0H140.132V1.055H0z" class="cls-14" transform="translate(215.789 265.197)"/>
        <path id="Retângulo_985" d="M0 0H11.619V1.055H0z" class="cls-14" transform="translate(166.426 265.197)"/>
        <path id="Retângulo_986" d="M0 0H12.722V1.055H0z" class="cls-14" transform="translate(233.669 273.239)"/>
        <path id="Retângulo_987" d="M0 0H4.158V1.055H0z" class="cls-14" transform="translate(408.455 273.239)"/>
        <path id="Retângulo_988" d="M0 0H62.273V1.055H0z" class="cls-14" transform="translate(329.05 273.239)"/>
        <path id="Retângulo_989" d="M0 0H132.608V1.055H0z" class="cls-14" transform="translate(94.725 273.239)"/>
        <path id="Retângulo_990" d="M0 0H7.561V1.055H0z" class="cls-14" transform="translate(80.367 273.239)"/>
        <path id="Retângulo_991" d="M0 0H59.445V1.055H0z" class="cls-14" transform="translate(387.555 265.324)"/>
        <path id="Retângulo_992" d="M0 0H81.416V1.055H0z" class="cls-14" transform="translate(77.78 265.197)"/>
        <path id="Retângulo_993" d="M0 0H5.366V1.055H0z" class="cls-14" transform="translate(434.131 257.283)"/>
        <path id="Retângulo_994" d="M0 0H326.112V1.055H0z" class="cls-14" transform="translate(84.66 257.283)"/>
        <path id="Retângulo_995" d="M0 0H84.868V1.055H0z" class="cls-14" transform="translate(0 257.283)"/>
        <path id="Retângulo_996" d="M0 0H5.804V1.055H0z" class="cls-7" transform="translate(248.427 257.283)"/>
        <path id="Retângulo_997" d="M0 0H10.247V1.055H0z" class="cls-7" transform="translate(317.235 257.283)"/>
        <path id="Retângulo_998" d="M0 0H42.038V1.055H0z" class="cls-7" transform="translate(366.777 257.283)"/>
        <path id="Retângulo_999" d="M0 0H48.586V1.055H0z" class="cls-7" transform="translate(261.272 257.283)"/>
        <path id="Retângulo_1000" d="M0 0H13.524V1.055H0z" class="cls-7" transform="translate(350.017 257.283)"/>
        <path id="Retângulo_1002" d="M0 0H65.011V1.055H0z" class="cls-7" transform="translate(73.737 257.283)"/>
        <path id="Retângulo_1003" d="M0 0H28.635V1.055H0z" class="cls-7" transform="translate(32.225 257.283)"/>
        <path id="Retângulo_1004" d="M0 0H5.282V1.055H0z" class="cls-7" transform="translate(22.463 257.283)"/>
        <path id="Retângulo_1005" d="M0 0H10.827V1.055H0z" class="cls-7" transform="translate(144.808 257.283)"/>
        <path id="Retângulo_1006" d="M0 0H10.495V1.055H0z" class="cls-7" transform="translate(415.732 257.283)"/>
        <circle id="Elipse_311" cx="4.221" cy="4.221" r="4.221" class="cls-2" transform="translate(175.827 37.629)"/>
        <path id="Caminho_38347" d="M43.643 0L12.106 22.5l-1.324.929L4.6 22.9a4.222 4.222 0 0 0-.76 8.411 4.086 4.086 0 0 0 1.192-.069l7.245-1.425a3.165 3.165 0 0 0 .7-.222l1.952-.881 2.871-1.308 32.993-14.969z" class="cls-2" transform="rotate(-9 886.64 -1634.135)"/>
        <path id="Caminho_38321" d="M855.914 353.707a3.2 3.2 0 0 0 3.736-2.506l2.147-11.27a8.062 8.062 0 0 1-6.332 1.462l-8.7-1.662a10.511 10.511 0 0 0-1.1 2.754l-.58 2.406-1.557 6.458z" class="cls-2" transform="translate(-548.643 -300.259)"/>
        <path id="Caminho_38324" d="M849.886 370.643a2.907 2.907 0 0 0 3.393-2.311l-5.7-1.082a2.907 2.907 0 0 0 2.311 3.393z" class="cls-8" transform="translate(-550.527 -313.444)"/>
        <path id="Caminho_38323" d="M858.516 350.711l1.683-8.822.148-.776a2.876 2.876 0 0 1 5.653 1.056 2.881 2.881 0 0 1-3.366 2.29l-.686 6.775a4.791 4.791 0 0 0 5.487-3.762l.987-5.155 1.314-6.9a9.587 9.587 0 0 0-7.033-11.081 3.841 3.841 0 0 0-3.118-3.641 3.828 3.828 0 0 1-5.625-.665l-.469-.09-4.575-.876-.29-.053a3.9 3.9 0 0 0-1.308 0 5.751 5.751 0 0 0-5.028 4.263 6.448 6.448 0 0 0-3.509 4.591 6.474 6.474 0 0 0 4.042 7.255l.58-2.406a10.511 10.511 0 0 1 1.1-2.754l8.7 1.662a8.062 8.062 0 0 0 6.332-1.462l-2.147 11.271a3.2 3.2 0 0 1-3.736 2.506l-12.373-2.359-1.092 4.511-.211.892-.908 3.773a3.831 3.831 0 0 0 3 4.633l6.089 1.166 1.393.264a7.677 7.677 0 0 0 8.966-6.106zm-15.116-6.273l5.7 1.082a2.9 2.9 0 0 1-5.7-1.082z" class="cls-1" transform="translate(-546.347 -290.446)"/>
    </g>
</svg>
