<svg xmlns="http://www.w3.org/2000/svg" width="136.006" height="130.052" viewBox="0 0 136.006 130.052">
    <defs>
        <style>
            .cls-1{fill:#f9b508}.cls-2{fill:#00b0b0}
        </style>
    </defs>
    <g id="_118-check" data-name="118-check" transform="translate(0 -11.206)">
        <g id="Grupo_78" data-name="Grupo 78" transform="translate(0 11.206)">
            <g id="Grupo_77" data-name="Grupo 77">
                <path id="Caminho_116" d="M124.559 65.236a5.494 5.494 0 0 0-5.494 5.494v5.533a54.038 54.038 0 0 1-54.038 54.007H65a54.038 54.038 0 0 1 .03-108.076h.032a53.7 53.7 0 0 1 21.958 4.678 5.494 5.494 0 0 0 4.472-10.037 64.615 64.615 0 0 0-26.429-5.629h-.038a65.026 65.026 0 0 0-46.006 110.98 64.6 64.6 0 0 0 45.97 19.072h.038a65.027 65.027 0 0 0 65.025-64.992V70.73a5.494 5.494 0 0 0-5.493-5.494z" class="cls-1" data-name="Caminho 116" transform="translate(0 -11.206)"/>
            </g>
        </g>
        <g id="Grupo_80" data-name="Grupo 80" transform="translate(41.673 17.193)">
            <g id="Grupo_79" data-name="Grupo 79">
                <path id="Caminho_117" d="M249.6 35.355a5.494 5.494 0 0 0-7.77 0l-61.6 61.6-13.972-13.974a5.494 5.494 0 0 0-7.769 7.77l17.86 17.86a5.494 5.494 0 0 0 7.77 0L249.6 43.125a5.494 5.494 0 0 0 0-7.77z" class="cls-2" data-name="Caminho 117" transform="translate(-156.879 -33.746)"/>
            </g>
        </g>
    </g>
</svg>
