<svg xmlns="http://www.w3.org/2000/svg" width="34.053" height="28.733" viewBox="0 0 34.053 28.733">
  <g id="Grupo_4586" data-name="Grupo 4586" transform="translate(-1133 -1437.267)">
    <circle id="Elipse_356" data-name="Elipse 356" cx="9" cy="9" r="9" transform="translate(1148 1447)" fill="#f9b508"/>
    <circle id="Elipse_357" data-name="Elipse 357" cx="9" cy="9" r="9" transform="translate(1134 1447)" fill="#f9b508"/>
    <g id="surface1" transform="translate(1133 1436.767)">
      <path id="Caminho_1805" data-name="Caminho 1805" d="M92.225,249.5a.664.664,0,1,0-.195.471A.671.671,0,0,0,92.225,249.5Zm0,0" transform="translate(-84.849 -231.815)" fill="#535252"/>
      <path id="Caminho_1806" data-name="Caminho 1806" d="M185.9,248.832a.666.666,0,1,0,.47.195A.671.671,0,0,0,185.9,248.832Zm0,0" transform="translate(-172.918 -231.815)" fill="#535252"/>
      <path id="Caminho_1807" data-name="Caminho 1807" d="M110.021,306.379a.665.665,0,0,0-.814.471,1.627,1.627,0,0,1-3.145,0,.665.665,0,0,0-1.286.344,2.958,2.958,0,0,0,5.717,0A.666.666,0,0,0,110.021,306.379Zm0,0" transform="translate(-97.785 -285.514)" fill="#535252"/>
      <path id="Caminho_1808" data-name="Caminho 1808" d="M246.782,6.055a.665.665,0,0,0,.665-.665V1.165a.665.665,0,0,0-1.331,0V5.39A.665.665,0,0,0,246.782,6.055Zm0,0" transform="translate(-229.748 0)" fill="#535252"/>
      <path id="Caminho_1809" data-name="Caminho 1809" d="M246.786,99.367a.666.666,0,1,0,.471.2A.67.67,0,0,0,246.786,99.367Zm0,0" transform="translate(-229.751 -92.291)" fill="#535252"/>
      <path id="Caminho_1810" data-name="Caminho 1810" d="M154.428,65.841a.665.665,0,1,0,.941-.941l-1.7-1.7a.665.665,0,1,0-.94.942Zm0,0" transform="translate(-142.389 -58.35)" fill="#535252"/>
      <path id="Caminho_1811" data-name="Caminho 1811" d="M313.234,66.172a.664.664,0,0,0,.471-.195l1.806-1.808a.665.665,0,0,0-.941-.941l-1.806,1.808a.665.665,0,0,0,.471,1.136Zm0,0" transform="translate(-291.78 -58.374)" fill="#535252"/>
      <path id="Caminho_1812" data-name="Caminho 1812" d="M33.717,143.58a9.853,9.853,0,0,0-16.695-4.194,9.849,9.849,0,1,0,.007,13.487,9.847,9.847,0,0,0,16.687-9.293ZM9.849,154.651a8.518,8.518,0,1,1,6.324-14.223q-.265.374-.5.777a9.852,9.852,0,0,0,.5,10.63A8.477,8.477,0,0,1,9.849,154.651Zm16.56-.295a8.518,8.518,0,0,1-9.581-12.486,8.624,8.624,0,0,1,.7-1.032c.011-.013.021-.026.031-.039a8.518,8.518,0,1,1,8.851,13.557Zm0,0" transform="translate(0 -126.749)" fill="#535252"/>
      <path id="Caminho_1813" data-name="Caminho 1813" d="M294.779,249.737a1.443,1.443,0,0,0-2.788.747.665.665,0,1,0,1.285-.344.113.113,0,0,1,.079-.138.113.113,0,0,1,.138.08.665.665,0,1,0,1.285-.344Zm0,0" transform="translate(-272.525 -231.661)" fill="#535252"/>
      <path id="Caminho_1814" data-name="Caminho 1814" d="M384.663,224.59a1.443,1.443,0,0,0-2.116,1.623.665.665,0,0,0,1.286-.345.112.112,0,0,1,.217-.058.665.665,0,0,0,1.286-.344A1.433,1.433,0,0,0,384.663,224.59Zm0,0" transform="translate(-357.057 -209.005)" fill="#535252"/>
      <path id="Caminho_1815" data-name="Caminho 1815" d="M336.164,295.87a.665.665,0,0,0-.47.815,1.587,1.587,0,1,1-3.065.822.665.665,0,1,0-1.285.344,2.921,2.921,0,0,0,2.813,2.164,2.921,2.921,0,0,0,2.823-3.674A.666.666,0,0,0,336.164,295.87Zm0,0" transform="translate(-309.284 -275.703)" fill="#535252"/>
    </g>
  </g>
</svg>
