<svg xmlns="http://www.w3.org/2000/svg" width="28.734" height="28.436" viewBox="0 0 28.734 28.436">
  <g id="Grupo_4637" data-name="Grupo 4637" transform="translate(-591 -862)">
    <path id="Caminho_38422" data-name="Caminho 38422" d="M12203.919-2640.745h-11.384v5.289h2.241v15.328h9.143Z" transform="translate(-11600.718 3509.801)" fill="#f9b508"/>
    <path id="Caminho_38423" data-name="Caminho 38423" d="M12192.534-2640.745h11.384v5.289h-2.241v15.328h-9.143Z" transform="translate(-11584.746 3509.801)" fill="#f9b508"/>
    <g id="supermarket-gift" transform="translate(591 862)">
      <g id="Grupo_4636" data-name="Grupo 4636" transform="translate(0 0)">
        <g id="Grupo_4635" data-name="Grupo 4635" transform="translate(0 0)">
          <path id="Caminho_38419" data-name="Caminho 38419" d="M27.2,9.064H23.216a3.942,3.942,0,0,0,1.049-2.68s0-.158,0-.2A3.607,3.607,0,0,0,22.4,3.139a3.689,3.689,0,0,0-3.646,0L16.944,4.163A6.325,6.325,0,0,0,14.367,6.9a6.324,6.324,0,0,0-2.576-2.742L9.978,3.14a3.689,3.689,0,0,0-3.646,0,3.607,3.607,0,0,0-1.86,3.042c0,.045,0,.2,0,.2a3.942,3.942,0,0,0,1.049,2.68H1.533A1.535,1.535,0,0,0,0,10.6v3.639a1.535,1.535,0,0,0,1.533,1.533h.7V29.561a1.535,1.535,0,0,0,1.533,1.533h21.2A1.535,1.535,0,0,0,26.5,29.561V15.768h.7a1.535,1.535,0,0,0,1.533-1.533V10.6A1.535,1.535,0,0,0,27.2,9.064Zm-9.63-3.789,1.813-1.023a2.421,2.421,0,0,1,2.393,0,2.339,2.339,0,0,1,1.209,1.971c0,.031,0,.16,0,.16a2.683,2.683,0,0,1-2.68,2.68H15.042A5.054,5.054,0,0,1,17.571,5.275ZM5.748,6.224A2.34,2.34,0,0,1,6.957,4.253a2.421,2.421,0,0,1,2.393,0l1.813,1.023a5.054,5.054,0,0,1,2.529,3.789H8.427a2.683,2.683,0,0,1-2.68-2.68S5.747,6.255,5.748,6.224Zm5.745,11.487H8.865a.639.639,0,1,0,0,1.277h2.629V29.816H3.768a.256.256,0,0,1-.256-.256V15.768h7.982v1.943Zm0-3.22H1.533a.256.256,0,0,1-.256-.256V10.6a.256.256,0,0,1,.256-.256h9.961Zm4.47,15.325H12.771V10.341h3.192Zm9.259-.256a.256.256,0,0,1-.256.256H17.241V18.988h2.433a.639.639,0,1,0,0-1.277H17.241V15.768h7.982V29.561Zm2.235-15.325a.256.256,0,0,1-.256.256H17.241V10.341H27.2a.256.256,0,0,1,.256.256v3.639Z" transform="translate(0 -2.657)" fill="#535252"/>
          <path id="Caminho_38420" data-name="Caminho 38420" d="M393.859,272.164h.064a.639.639,0,0,0,0-1.277h-.064a.639.639,0,0,0,0,1.277Z" transform="translate(-371.152 -255.833)" fill="#535252"/>
          <path id="Caminho_38421" data-name="Caminho 38421" d="M92.039,272.164H92.1a.639.639,0,1,0,0-1.277h-.064a.639.639,0,1,0,0,1.277Z" transform="translate(-86.27 -255.833)" fill="#535252"/>
        </g>
      </g>
    </g>
  </g>
</svg>
