<svg xmlns="http://www.w3.org/2000/svg" width="119.802" height="119.802" viewBox="0 0 119.802 119.802">
    <path fill="#dcdcdc" d="M94.026 119.8A25.787 25.787 0 0 0 119.8 94.063V29.249C119.8 12.574 108.217 0 92.854 0h-7.03A26.991 26.991 0 0 0 59.9 19.546 26.991 26.991 0 0 0 33.979 0h-7.031C11.585 0 0 12.574 0 29.249v64.814a25.776 25.776 0 0 0 51.552 0V76.375a12.465 12.465 0 0 1 3.653-8.775 19.483 19.483 0 0 0 4.7-7.582A19.5 19.5 0 0 0 64.6 67.6a12.461 12.461 0 0 1 3.652 8.779v17.684A25.787 25.787 0 0 0 94.026 119.8zM85.824 7.02h7.031a18.983 18.983 0 0 1 14 6.033 23.458 23.458 0 0 1 5.916 16.2V46.74l-12.361-7.975a16.969 16.969 0 0 1-7.557-14.2 3.515 3.515 0 0 0-7.03 0 16.971 16.971 0 0 1-7.557 14.2l-12.36 7.975V26.909A19.926 19.926 0 0 1 85.824 7.02zm-72.879 6.033a18.983 18.983 0 0 1 14-6.033h7.031A19.927 19.927 0 0 1 53.9 26.909V46.74l-12.364-7.975a16.969 16.969 0 0 1-7.557-14.2 3.515 3.515 0 0 0-7.03 0 16.97 16.97 0 0 1-7.558 14.2L7.031 46.74V29.249a23.454 23.454 0 0 1 5.915-16.2zm37.3 49.569a19.526 19.526 0 0 0-5.722 13.752v17.69a18.746 18.746 0 0 1-37.492 0V55.1l16.176-10.439a23.273 23.273 0 0 0 7.256-7.446 23.276 23.276 0 0 0 7.257 7.446l16.115 10.4a12.487 12.487 0 0 1-3.591 7.564zm15.723-7.564l16.115-10.4a23.273 23.273 0 0 0 7.256-7.446 23.266 23.266 0 0 0 7.261 7.449L112.773 55.1v38.963a18.747 18.747 0 0 1-37.493 0V76.375a19.531 19.531 0 0 0-5.721-13.753 12.477 12.477 0 0 1-3.591-7.563zm0 0"/>
</svg>
