<svg xmlns="http://www.w3.org/2000/svg" width="33.844" height="40.603" viewBox="0 0 33.844 40.603">
    <defs>
        <style>
            .cls-1{fill:#f9b508}.cls-2{fill:#d2d2d2}.cls-3{fill:#535252}.cls-4{fill:#fff}
        </style>
    </defs>
    <g id="lightbulb" transform="translate(-40.017)">
        <path id="Caminho_1830" d="M140.594 127.994c-1.892 1.892-1.655 5.709-1.655 5.709h-9.593s.2-3.817-1.655-5.709a9.762 9.762 0 1 1 12.9 0z" class="cls-1" data-name="Caminho 1830" transform="translate(-77.177 -101.443)"/>
        <g id="Grupo_1042" data-name="Grupo 1042" transform="translate(51.864 34.353)">
            <path id="Caminho_1831" d="M190.48 407.712a.908.908 0 0 1-.912.912h-8.343a.908.908 0 0 1-.912-.912.908.908 0 0 1 .912-.912h8.31a.938.938 0 0 1 .946.912z" class="cls-2" data-name="Caminho 1831" transform="translate(-180.312 -406.8)"/>
            <path id="Caminho_1832" d="M202.78 452.512a.908.908 0 0 1-.912.912h-5.844a.908.908 0 0 1-.912-.912.908.908 0 0 1 .912-.912h5.844a.908.908 0 0 1 .912.912z" class="cls-2" data-name="Caminho 1832" transform="translate(-193.862 -447.817)"/>
        </g>
        <g id="Grupo_1043" data-name="Grupo 1043" transform="translate(40.017)">
            <path id="Caminho_1833" d="M134.142 121.373a10.432 10.432 0 1 0-13.883.1c1.655 1.655 1.486 5.168 1.486 5.2a.807.807 0 0 0 .169.473.667.667 0 0 0 .473.2h9.56a.667.667 0 0 0 .473-.2.632.632 0 0 0 .169-.473c0-.034-.169-3.547 1.486-5.2.033-.032.067-.066.067-.1zm-.946-.844a.337.337 0 0 0-.135.169c-1.486 1.588-1.723 4.189-1.757 5.4h-8.276c-.034-1.25-.3-3.952-1.892-5.54a9.151 9.151 0 1 1 15.167-6.891 9.084 9.084 0 0 1-3.103 6.862z" class="cls-3" data-name="Caminho 1833" transform="translate(-110.235 -94.485)"/>
            <path id="Caminho_1834" d="M233.354 135.2a.642.642 0 1 0 0 1.284 6.862 6.862 0 0 1 6.857 6.857.642.642 0 1 0 1.284 0 8.145 8.145 0 0 0-8.141-8.141z" class="cls-4" data-name="Caminho 1834" transform="translate(-216.439 -123.783)"/>
            <path id="Caminho_1835" d="M184.163 400.754a1.55 1.55 0 0 0-1.554-1.554h-8.343a1.554 1.554 0 0 0 0 3.108h8.31a1.557 1.557 0 0 0 1.587-1.554zm-1.588.27h-8.31a.27.27 0 1 1 0-.54h8.31a.266.266 0 0 1 .27.27c.035.169-.101.27-.269.27z" class="cls-3" data-name="Caminho 1835" transform="translate(-161.506 -365.488)"/>
            <path id="Caminho_1836" d="M194.91 444h-5.844a1.554 1.554 0 1 0 0 3.108h5.844a1.55 1.55 0 0 0 1.554-1.554A1.572 1.572 0 0 0 194.91 444zm0 1.824h-5.844a.27.27 0 0 1 0-.541h5.844a.266.266 0 0 1 .27.27.249.249 0 0 1-.27.271z" class="cls-3" data-name="Caminho 1836" transform="translate(-175.056 -406.505)"/>
            <path id="Caminho_1837" d="M234 4.966V.642a.642.642 0 0 0-1.284 0V5a.641.641 0 0 0 .642.642.671.671 0 0 0 .642-.676z" class="cls-3" data-name="Caminho 1837" transform="translate(-216.439)"/>
            <path id="Caminho_1838" d="M329.629 36.84a.642.642 0 0 0-.878.169l-2.4 3.614a.642.642 0 0 0 .169.878.652.652 0 0 0 .338.1.705.705 0 0 0 .54-.27l2.4-3.614a.648.648 0 0 0-.169-.877z" class="cls-3" data-name="Caminho 1838" transform="translate(-302.074 -33.631)"/>
            <path id="Caminho_1839" d="M117.8 39.449a.644.644 0 0 0 .54-.98l-2.331-3.648a.637.637 0 1 0-1.081.676l2.331 3.648a.649.649 0 0 0 .541.304z" class="cls-3" data-name="Caminho 1839" transform="translate(-108.522 -31.613)"/>
            <path id="Caminho_1840" d="M40.346 115.479l3.817 2.061a.5.5 0 0 0 .3.068.7.7 0 0 0 .574-.338.635.635 0 0 0-.27-.878l-3.817-2.061a.635.635 0 0 0-.878.27.687.687 0 0 0 .274.878z" class="cls-3" data-name="Caminho 1840" transform="translate(-40.017 -104.602)"/>
            <path id="Caminho_1841" d="M380.889 118.079a.986.986 0 0 0 .3-.068l3.817-2.061a.65.65 0 1 0-.608-1.148l-3.817 2.061a.644.644 0 0 0 .3 1.216z" class="cls-3" data-name="Caminho 1841" transform="translate(-351.51 -105.04)"/>
        </g>
    </g>
</svg>
