<svg xmlns="http://www.w3.org/2000/svg" width="10.215" height="13.409" viewBox="0 0 10.215 13.409">
  <g id="_038-placeholder" data-name="038-placeholder" transform="translate(10.214 13.409) rotate(180)">
    <g id="Grupo_156" data-name="Grupo 156" transform="translate(0 0)">
      <g id="Grupo_155" data-name="Grupo 155">
        <path id="Caminho_84" data-name="Caminho 84" d="M5.107,13.41A5.113,5.113,0,0,1,0,8.3c0-1.818.553-2.547,3.21-6.05.461-.608.984-1.3,1.582-2.095a.393.393,0,0,1,.629,0C6.016.951,6.537,1.637,7,2.243,9.66,5.756,10.214,6.488,10.214,8.3A5.113,5.113,0,0,1,5.107,13.41ZM6.37,2.718c-.377-.5-.8-1.05-1.263-1.671-.47.625-.891,1.18-1.271,1.68C1.251,6.135.786,6.749.786,8.3a4.321,4.321,0,1,0,8.643,0C9.429,6.752,8.962,6.136,6.37,2.718Z" fill="#535252"/>
      </g>
    </g>
    <g id="Grupo_158" data-name="Grupo 158" transform="translate(2.357 5.552)">
      <g id="Grupo_157" data-name="Grupo 157">
        <path id="Caminho_85" data-name="Caminho 85" d="M2.75,5.5A2.75,2.75,0,1,1,5.5,2.75,2.753,2.753,0,0,1,2.75,5.5Zm0-4.714A1.964,1.964,0,1,0,4.714,2.75,1.967,1.967,0,0,0,2.75.786Z" fill="#535252"/>
      </g>
    </g>
  </g>
</svg>
