<svg xmlns="http://www.w3.org/2000/svg" width="84.184" height="82.952" viewBox="0 0 84.184 82.952">
  <g id="Grupo_5117" data-name="Grupo 5117" transform="translate(-694.5 -324.5)">
    <g id="Grupo_4346" data-name="Grupo 4346" transform="translate(695.732 331.481)">
      <path id="Retângulo_1176" data-name="Retângulo 1176" d="M3.011,0H72.55A3.011,3.011,0,0,1,75.56,3.011V13.962a0,0,0,0,1,0,0H0a0,0,0,0,1,0,0V3.011A3.011,3.011,0,0,1,3.011,0Z" fill="#f9b508"/>
    </g>
    <g id="Grupo_4349" data-name="Grupo 4349" transform="translate(694.5 330.249)">
      <g id="Grupo_4347" data-name="Grupo 4347" transform="translate(4.928 4.928)">
        <path id="Caminho_21462" data-name="Caminho 21462" d="M774.418,409.775H705.839a5.345,5.345,0,0,1-5.339-5.339h2.464a2.878,2.878,0,0,0,2.875,2.875h68.579a2.878,2.878,0,0,0,2.875-2.875v-61.6a2.878,2.878,0,0,0-2.875-2.875V337.5a5.345,5.345,0,0,1,5.339,5.338v61.6A5.345,5.345,0,0,1,774.418,409.775Z" transform="translate(-700.5 -337.5)" fill="#535252"/>
      </g>
      <g id="Grupo_4348" data-name="Grupo 4348">
        <path id="Caminho_21463" data-name="Caminho 21463" d="M768.418,403.775H699.838a5.345,5.345,0,0,1-5.338-5.338v-61.6a5.345,5.345,0,0,1,5.338-5.338h68.579a5.345,5.345,0,0,1,5.339,5.338v61.6A5.345,5.345,0,0,1,768.418,403.775Zm-68.579-69.811a2.878,2.878,0,0,0-2.875,2.875v61.6a2.878,2.878,0,0,0,2.875,2.875h68.579a2.878,2.878,0,0,0,2.875-2.875v-61.6a2.878,2.878,0,0,0-2.875-2.875Z" transform="translate(-694.5 -331.5)" fill="#535252"/>
      </g>
    </g>
    <g id="Grupo_4350" data-name="Grupo 4350" transform="translate(696.553 345.033)">
      <rect id="Retângulo_1177" data-name="Retângulo 1177" width="75.56" height="2.464" fill="#535252"/>
    </g>
    <g id="Grupo_4351" data-name="Grupo 4351" transform="translate(707.914 354.888)">
      <rect id="Retângulo_1178" data-name="Retângulo 1178" width="9.034" height="7.392" rx="2" transform="translate(0.822 0.821)" fill="#f9b508"/>
      <path id="Caminho_21464" data-name="Caminho 21464" d="M719.046,370.534H713.3a2.467,2.467,0,0,1-2.464-2.464v-4.107A2.467,2.467,0,0,1,713.3,361.5h5.749a2.467,2.467,0,0,1,2.464,2.464v4.107A2.467,2.467,0,0,1,719.046,370.534Zm-5.749-7.392a.822.822,0,0,0-.822.821v4.107a.822.822,0,0,0,.822.821h5.749a.822.822,0,0,0,.821-.821v-4.107a.822.822,0,0,0-.821-.821Z" transform="translate(-710.833 -361.5)" fill="#f9b508"/>
    </g>
    <g id="Grupo_4352" data-name="Grupo 4352" transform="translate(721.33 354.888)">
      <rect id="Retângulo_1179" data-name="Retângulo 1179" width="9.034" height="7.392" rx="2" transform="translate(0.821 0.821)" fill="#f9b508"/>
      <path id="Caminho_21465" data-name="Caminho 21465" d="M735.38,370.534h-5.749a2.467,2.467,0,0,1-2.464-2.464v-4.107a2.467,2.467,0,0,1,2.464-2.464h5.749a2.467,2.467,0,0,1,2.464,2.464v4.107A2.467,2.467,0,0,1,735.38,370.534Zm-5.749-7.392a.822.822,0,0,0-.821.821v4.107a.822.822,0,0,0,.821.821h5.749a.822.822,0,0,0,.821-.821v-4.107a.822.822,0,0,0-.821-.821Z" transform="translate(-727.167 -361.5)" fill="#f9b508"/>
    </g>
    <g id="Grupo_4355" data-name="Grupo 4355" transform="translate(735.018 354.888)">
      <path id="Caminho_21468" data-name="Caminho 21468" d="M752.046,370.534H746.3a2.467,2.467,0,0,1-2.464-2.464v-4.107A2.467,2.467,0,0,1,746.3,361.5h5.749a2.467,2.467,0,0,1,2.464,2.464v4.107A2.467,2.467,0,0,1,752.046,370.534Z" transform="translate(-743.833 -361.5)" fill="#f9b508"/>
    </g>
    <g id="Grupo_4356" data-name="Grupo 4356" transform="translate(748.433 354.888)">
      <path id="Caminho_21469" data-name="Caminho 21469" d="M768.38,370.534h-5.749a2.467,2.467,0,0,1-2.464-2.464v-4.107a2.467,2.467,0,0,1,2.464-2.464h5.749a2.467,2.467,0,0,1,2.464,2.464v4.107A2.467,2.467,0,0,1,768.38,370.534Zm-5.749-7.392a.822.822,0,0,0-.821.821v4.107a.822.822,0,0,0,.821.821h5.749a.822.822,0,0,0,.821-.821v-4.107a.822.822,0,0,0-.821-.821Z" transform="translate(-760.167 -361.5)" fill="#535252"/>
    </g>
    <g id="Grupo_4357" data-name="Grupo 4357" transform="translate(748.433 367.208)">
      <path id="Caminho_21470" data-name="Caminho 21470" d="M768.38,385.534h-5.749a2.467,2.467,0,0,1-2.464-2.464v-4.107a2.467,2.467,0,0,1,2.464-2.464h5.749a2.467,2.467,0,0,1,2.464,2.464v4.107A2.467,2.467,0,0,1,768.38,385.534Zm-5.749-7.392a.822.822,0,0,0-.821.821v4.107a.822.822,0,0,0,.821.821h5.749a.822.822,0,0,0,.821-.821v-4.107a.822.822,0,0,0-.821-.821Z" transform="translate(-760.167 -376.5)" fill="#535252"/>
    </g>
    <g id="Grupo_4358" data-name="Grupo 4358" transform="translate(748.433 379.117)">
      <path id="Caminho_21471" data-name="Caminho 21471" d="M768.38,400.034h-5.749a2.467,2.467,0,0,1-2.464-2.464v-4.107A2.467,2.467,0,0,1,762.631,391h5.749a2.467,2.467,0,0,1,2.464,2.464v4.107A2.467,2.467,0,0,1,768.38,400.034Zm-5.749-7.392a.822.822,0,0,0-.821.821v4.107a.822.822,0,0,0,.821.821h5.749a.822.822,0,0,0,.821-.821v-4.107a.822.822,0,0,0-.821-.821Z" transform="translate(-760.167 -391)" fill="#535252"/>
    </g>
    <g id="Grupo_4359" data-name="Grupo 4359" transform="translate(735.018 379.117)">
      <path id="Caminho_21472" data-name="Caminho 21472" d="M752.046,400.034H746.3a2.467,2.467,0,0,1-2.464-2.464v-4.107A2.467,2.467,0,0,1,746.3,391h5.749a2.467,2.467,0,0,1,2.464,2.464v4.107A2.467,2.467,0,0,1,752.046,400.034Zm-5.749-7.392a.821.821,0,0,0-.821.821v4.107a.821.821,0,0,0,.821.821h5.749a.822.822,0,0,0,.821-.821v-4.107a.822.822,0,0,0-.821-.821Z" transform="translate(-743.833 -391)" fill="#535252"/>
    </g>
    <g id="Grupo_4360" data-name="Grupo 4360" transform="translate(707.914 367.208)">
      <path id="Caminho_21473" data-name="Caminho 21473" d="M719.046,385.534H713.3a2.467,2.467,0,0,1-2.464-2.464v-4.107A2.467,2.467,0,0,1,713.3,376.5h5.749a2.467,2.467,0,0,1,2.464,2.464v4.107A2.467,2.467,0,0,1,719.046,385.534Zm-5.749-7.392a.822.822,0,0,0-.822.821v4.107a.822.822,0,0,0,.822.821h5.749a.822.822,0,0,0,.821-.821v-4.107a.822.822,0,0,0-.821-.821Z" transform="translate(-710.833 -376.5)" fill="#535252"/>
    </g>
    <g id="Grupo_4361" data-name="Grupo 4361" transform="translate(707.914 379.117)">
      <path id="Caminho_21474" data-name="Caminho 21474" d="M719.046,400.034H713.3a2.467,2.467,0,0,1-2.464-2.464v-4.107A2.467,2.467,0,0,1,713.3,391h5.749a2.467,2.467,0,0,1,2.464,2.464v4.107A2.467,2.467,0,0,1,719.046,400.034Zm-5.749-7.392a.822.822,0,0,0-.822.821v4.107a.822.822,0,0,0,.822.821h5.749a.822.822,0,0,0,.821-.821v-4.107a.822.822,0,0,0-.821-.821Z" transform="translate(-710.833 -391)" fill="#535252"/>
    </g>
    <g id="Grupo_4362" data-name="Grupo 4362" transform="translate(721.33 367.208)">
      <path id="Caminho_21475" data-name="Caminho 21475" d="M735.38,385.534h-5.749a2.467,2.467,0,0,1-2.464-2.464v-4.107a2.467,2.467,0,0,1,2.464-2.464h5.749a2.467,2.467,0,0,1,2.464,2.464v4.107A2.467,2.467,0,0,1,735.38,385.534Zm-5.749-7.392a.822.822,0,0,0-.821.821v4.107a.822.822,0,0,0,.821.821h5.749a.822.822,0,0,0,.821-.821v-4.107a.822.822,0,0,0-.821-.821Z" transform="translate(-727.167 -376.5)" fill="#535252"/>
    </g>
    <g id="Grupo_4363" data-name="Grupo 4363" transform="translate(757.299 324.5)">
      <path id="Caminho_21478" data-name="Caminho 21478" d="M774.878,336.82a4.134,4.134,0,0,1-3.916-4.312v-3.7a3.935,3.935,0,1,1,7.834,0h-2.464a1.5,1.5,0,1,0-2.906,0v3.7a1.709,1.709,0,0,0,1.452,1.848Z" transform="translate(-770.962 -324.5)" fill="#535252"/>
    </g>
    <g id="Grupo_4364" data-name="Grupo 4364" transform="translate(748.706 324.5)">
      <path id="Caminho_21479" data-name="Caminho 21479" d="M764.418,336.82a4.134,4.134,0,0,1-3.917-4.312v-3.7a3.935,3.935,0,1,1,7.833,0H765.87a1.5,1.5,0,1,0-2.906,0v3.7a1.71,1.71,0,0,0,1.454,1.848Z" transform="translate(-760.5 -324.5)" fill="#535252"/>
    </g>
    <g id="Grupo_4365" data-name="Grupo 4365" transform="translate(711.306 324.5)">
      <path id="Caminho_21480" data-name="Caminho 21480" d="M718.878,336.82a4.133,4.133,0,0,1-3.916-4.312v-3.7a3.935,3.935,0,1,1,7.833,0h-2.464a1.5,1.5,0,1,0-2.906,0v3.7a1.709,1.709,0,0,0,1.452,1.848Z" transform="translate(-714.962 -324.5)" fill="#535252"/>
    </g>
    <g id="Grupo_4366" data-name="Grupo 4366" transform="translate(702.713 324.5)">
      <path id="Caminho_21481" data-name="Caminho 21481" d="M708.418,336.82a4.134,4.134,0,0,1-3.918-4.312v-3.7a3.935,3.935,0,1,1,7.834,0H709.87a1.5,1.5,0,1,0-2.906,0v3.7a1.71,1.71,0,0,0,1.454,1.848Z" transform="translate(-704.5 -324.5)" fill="#535252"/>
    </g>
    <g id="Grupo_5103" data-name="Grupo 5103" transform="translate(721.33 379.117)">
      <path id="Caminho_21475-2" data-name="Caminho 21475" d="M735.38,385.534h-5.749a2.467,2.467,0,0,1-2.464-2.464v-4.107a2.467,2.467,0,0,1,2.464-2.464h5.749a2.467,2.467,0,0,1,2.464,2.464v4.107A2.467,2.467,0,0,1,735.38,385.534Zm-5.749-7.392a.822.822,0,0,0-.821.821v4.107a.822.822,0,0,0,.821.821h5.749a.822.822,0,0,0,.821-.821v-4.107a.822.822,0,0,0-.821-.821Z" transform="translate(-727.167 -376.5)" fill="#535252"/>
    </g>
    <g id="Grupo_5104" data-name="Grupo 5104" transform="translate(735.018 367.208)">
      <path id="Caminho_21472-2" data-name="Caminho 21472" d="M752.046,400.034H746.3a2.467,2.467,0,0,1-2.464-2.464v-4.107A2.467,2.467,0,0,1,746.3,391h5.749a2.467,2.467,0,0,1,2.464,2.464v4.107A2.467,2.467,0,0,1,752.046,400.034Zm-5.749-7.392a.821.821,0,0,0-.821.821v4.107a.821.821,0,0,0,.821.821h5.749a.822.822,0,0,0,.821-.821v-4.107a.822.822,0,0,0-.821-.821Z" transform="translate(-743.833 -391)" fill="#535252"/>
    </g>
  </g>
</svg>
