<svg xmlns="http://www.w3.org/2000/svg" width="133.743" height="133.743" viewBox="0 0 133.743 133.743">
    <path id="prefix___022-slippers" d="M104.967 133.743a28.788 28.788 0 0 0 28.776-28.734V32.652C133.743 14.037 120.81 0 103.659 0H95.81a30.132 30.132 0 0 0-28.938 21.821A30.132 30.132 0 0 0 37.933 0h-7.849C12.933 0 0 14.037 0 32.652v72.357a28.776 28.776 0 0 0 57.551 0V85.263a13.916 13.916 0 0 1 4.077-9.8A21.75 21.75 0 0 0 66.871 67a21.763 21.763 0 0 0 5.242 8.464 13.911 13.911 0 0 1 4.077 9.8v19.746a28.788 28.788 0 0 0 28.777 28.734zM95.81 7.836h7.849a21.192 21.192 0 0 1 15.632 6.736c4.258 4.546 6.6 10.967 6.6 18.08v19.527l-13.8-8.9a18.944 18.944 0 0 1-8.436-15.848 3.924 3.924 0 0 0-7.848 0 18.946 18.946 0 0 1-8.436 15.848l-13.8 8.9V30.04A22.244 22.244 0 0 1 95.81 7.836zm-81.358 6.736a21.192 21.192 0 0 1 15.632-6.736h7.849a22.245 22.245 0 0 1 22.236 22.2v22.143l-13.8-8.9a18.944 18.944 0 0 1-8.436-15.848 3.924 3.924 0 0 0-7.848 0 18.945 18.945 0 0 1-8.437 15.848l-13.8 8.9V32.652c0-7.113 2.345-13.534 6.6-18.08zm41.639 55.337A21.8 21.8 0 0 0 49.7 85.262v19.747a20.927 20.927 0 0 1-41.855 0v-43.5l18.062-11.651a25.981 25.981 0 0 0 8.1-8.312 25.985 25.985 0 0 0 8.1 8.312L60.1 61.466a13.94 13.94 0 0 1-4.009 8.444zm17.553-8.444l17.99-11.608a25.981 25.981 0 0 0 8.1-8.312 25.973 25.973 0 0 0 8.1 8.312L125.9 61.509v43.5a20.928 20.928 0 0 1-41.856 0V85.263a21.8 21.8 0 0 0-6.387-15.354 13.929 13.929 0 0 1-4.009-8.444zm0 0" data-name="022-slippers" style="fill:#f9b508"/>
</svg>
