<svg xmlns="http://www.w3.org/2000/svg" id="lamp" width="22.073" height="28.207" viewBox="0 0 22.073 28.207">
    <defs>
        <style>
            .cls-3{fill-rule:evenodd;fill:#393e46}
        </style>
    </defs>
    <path id="Caminho_1728" fill="#dbdbdb" fill-rule="evenodd" d="M139.09 366.473h6.747v4.681a3.436 3.436 0 0 1-6.747 0zm0 0" transform="translate(-131.427 -346.283)"/>
    <path id="Caminho_1729" fill="#fff4e0" fill-rule="evenodd" d="M81.512 74.586a6.927 6.927 0 0 1 6.927 6.927c0 4.8-3.521 6.358-3.521 8.408q0 .4-.033.745h-6.746q-.032-.351-.033-.745c0-2.05-3.521-3.611-3.521-8.408a6.927 6.927 0 0 1 6.927-6.927zm0 0" transform="translate(-70.476 -70.477)"/>
    <path id="Caminho_1730" d="M76.718 64.586a7.466 7.466 0 0 0-7.1 5.129.551.551 0 0 0 1.046.346 6.377 6.377 0 0 1 12.432 2 8.744 8.744 0 0 1-2.2 5.646 4.84 4.84 0 0 0-1.326 2.763v.195h-2.3V79.4a.551.551 0 0 0-1.1 0v1.266h-2.3v-.195a4.842 4.842 0 0 0-1.326-2.763 10.075 10.075 0 0 1-1.942-3.6.551.551 0 1 0-1.066.279 11.137 11.137 0 0 0 2.126 3.98 4.134 4.134 0 0 1 1.106 2.1c0 .264.011.521.033.767v4.721a.55.55 0 0 0 .009.06 4.127 4.127 0 0 0 1.379 2.3 3.934 3.934 0 0 0 5.066 0 4.129 4.129 0 0 0 1.379-2.3.6.6 0 0 0 .009-.06v-.011-4.704c.022-.246.033-.5.033-.767a4.133 4.133 0 0 1 1.105-2.1 9.809 9.809 0 0 0 2.419-6.309 7.487 7.487 0 0 0-7.478-7.478zM73.9 84.109h5.645v1.239H73.9zm5.645-1.1H73.9v-1.24h5.645zm-2.823 5.126a2.917 2.917 0 0 1-2.609-1.684h5.218a2.918 2.918 0 0 1-2.613 1.682zm0 0" class="cls-3" transform="translate(-65.682 -61.028)"/>
    <path id="Caminho_1731" d="M190.875 2.57a.551.551 0 0 0 .551-.551V.551a.551.551 0 1 0-1.1 0v1.468a.551.551 0 0 0 .549.551zm0 0" class="cls-3" transform="translate(-179.839)"/>
    <path id="Caminho_1732" d="M2.019 190.324H.551a.551.551 0 1 0 0 1.1h1.468a.551.551 0 1 0 0-1.1zm0 0" class="cls-3" transform="translate(0 -179.839)"/>
    <path id="Caminho_1733" d="M159.584 211.078a.551.551 0 0 0-.551-.551h-3.943a.551.551 0 1 0 0 1.1h1.421v1.266a.551.551 0 1 0 1.1 0v-1.266h1.421a.551.551 0 0 0 .552-.549zm0 0" class="cls-3" transform="translate(-146.025 -198.928)"/>
    <path id="Caminho_1734" d="M56.942 57.725a.551.551 0 1 0 .779-.779l-1.038-1.038a.551.551 0 0 0-.779.779zm0 0" class="cls-3" transform="translate(-52.671 -52.675)"/>
    <path id="Caminho_1735" d="M50.046 313.123l-1.038 1.038a.551.551 0 1 0 .779.779l1.038-1.038a.551.551 0 1 0-.779-.779zm0 0" class="cls-3" transform="translate(-46.156 -295.719)"/>
    <path id="Caminho_1736" d="M306.613 57.884a.549.549 0 0 0 .39-.161l1.038-1.038a.551.551 0 0 0-.779-.779l-1.038 1.038a.551.551 0 0 0 .39.941zm0 0" class="cls-3" transform="translate(-289.201 -52.673)"/>
    <path id="Caminho_1737" d="M313.9 313.123a.551.551 0 0 0-.779.779l1.038 1.038a.551.551 0 0 0 .779-.779zm0 0" class="cls-3" transform="translate(-295.719 -295.719)"/>
    <path id="Caminho_1738" d="M356.019 190.324h-1.468a.551.551 0 0 0 0 1.1h1.468a.551.551 0 1 0 0-1.1zm0 0" class="cls-3" transform="translate(-334.498 -179.839)"/>
    <path id="Caminho_1739" d="M190.875 283.5a.551.551 0 1 0 .551.551.552.552 0 0 0-.551-.551zm0 0" class="cls-3" transform="translate(-179.839 -267.881)"/>
    <path id="Caminho_1740" d="M65.137 191.426a.551.551 0 1 0-.551-.551.552.552 0 0 0 .551.551zm0 0" class="cls-3" transform="translate(-61.028 -179.839)"/>
</svg>
