<svg xmlns="http://www.w3.org/2000/svg" width="57.208" height="44.441" viewBox="0 0 57.208 44.441">
    <defs>
        <style>
            .cls-1{fill:#eb610a}.cls-2{fill:#1d1d1b}.cls-3{fill:#e30d17}.cls-4{fill:#f69f00}
        </style>
    </defs>
    <g id="Camada_2" data-name="Camada 2">
        <g id="Layer_1" data-name="Layer 1">
            <path id="Caminho_435" d="M6.691 0c3.7 0 6.691 6.189 6.691 13.823s-3 13.823-6.691 13.823S0 21.457 0 13.823 3 0 6.691 0z" class="cls-1" data-name="Caminho 435" transform="translate(21.89 3.806)"/>
            <path id="Caminho_417" d="M19.672 174.639a1.765 1.765 0 0 0-.583-.382 1.975 1.975 0 0 0-.741-.138 2.769 2.769 0 0 0-.441.038 1.887 1.887 0 0 0-.452.129 1.677 1.677 0 0 0-.414.258 1.492 1.492 0 0 0-.346.414 1.682 1.682 0 0 0-.64-.613 1.878 1.878 0 0 0-.924-.226 2.264 2.264 0 0 0-.362.032 1.776 1.776 0 0 0-.371.111 1.451 1.451 0 0 0-.35.213 1.484 1.484 0 0 0-.305.339v-.572h-.983v4.678h.992v-2.594a1.4 1.4 0 0 1 .095-.529 1.171 1.171 0 0 1 .253-.389 1.037 1.037 0 0 1 .371-.226 1.243 1.243 0 0 1 .452-.081.978.978 0 0 1 .778.317 1.341 1.341 0 0 1 .276.9v2.6h.992v-2.6a1.4 1.4 0 0 1 .095-.529 1.171 1.171 0 0 1 .253-.389 1.037 1.037 0 0 1 .371-.226 1.256 1.256 0 0 1 .452-.081.976.976 0 0 1 .775.317 1.341 1.341 0 0 1 .278.9v2.6h.99v-2.94a2.009 2.009 0 0 0-.136-.762 1.744 1.744 0 0 0-.375-.569z" class="cls-2" data-name="Caminho 417" transform="translate(-9.847 -134.747)"/>
            <path id="Caminho_418" d="M53.446 174.838a1.809 1.809 0 0 0-.606-.491 1.83 1.83 0 0 0-.863-.19 2.273 2.273 0 0 0-1.659.694 2.352 2.352 0 0 0-.5.778 2.8 2.8 0 0 0 0 1.979 2.329 2.329 0 0 0 .5.778 2.273 2.273 0 0 0 1.664.685 1.857 1.857 0 0 0 .863-.185 1.808 1.808 0 0 0 .606-.5v.561h1.017v-4.678h-1.022zm-.038 2.367a1.4 1.4 0 0 1-.289.475 1.327 1.327 0 0 1-.452.314 1.4 1.4 0 0 1-.576.115 1.412 1.412 0 0 1-.592-.12 1.329 1.329 0 0 1-.452-.323 1.438 1.438 0 0 1-.278-.475 1.714 1.714 0 0 1-.1-.581 1.7 1.7 0 0 1 .1-.581 1.449 1.449 0 0 1 .278-.477 1.356 1.356 0 0 1 .452-.321 1.378 1.378 0 0 1 .592-.12 1.4 1.4 0 0 1 .576.115 1.3 1.3 0 0 1 .452.314 1.415 1.415 0 0 1 .289.473 1.705 1.705 0 0 1 .1.6 1.685 1.685 0 0 1-.1.593z" class="cls-2" data-name="Caminho 418" transform="translate(-38.391 -134.777)"/>
            <path id="Caminho_419" d="M79.031 176.6a2.511 2.511 0 0 0-1.2-.452l-.484-.072a5.585 5.585 0 0 1-.3-.057 1.063 1.063 0 0 1-.244-.086.466.466 0 0 1-.163-.138.33.33 0 0 1-.061-.2.452.452 0 0 1 .226-.4 1.154 1.154 0 0 1 .651-.154 2.288 2.288 0 0 1 .432.038 3.393 3.393 0 0 1 .4.1 2.771 2.771 0 0 1 .346.129 2.813 2.813 0 0 1 .264.136l.438-.8a3 3 0 0 0-.854-.364 4.067 4.067 0 0 0-1.04-.129 2.844 2.844 0 0 0-.8.1 1.841 1.841 0 0 0-.608.3 1.284 1.284 0 0 0-.384.47 1.409 1.409 0 0 0-.136.626 1.156 1.156 0 0 0 .4.9A2.24 2.24 0 0 0 77.1 177l.488.063a1.554 1.554 0 0 1 .615.188.387.387 0 0 1 .2.33.468.468 0 0 1-.269.418 1.647 1.647 0 0 1-.8.154 3.2 3.2 0 0 1-.515-.038 2.593 2.593 0 0 1-.416-.106 2.014 2.014 0 0 1-.337-.152 2.643 2.643 0 0 1-.276-.183l-.472.767a2.472 2.472 0 0 0 .531.308 3.452 3.452 0 0 0 .547.183 3.165 3.165 0 0 0 .509.088c.158.016.3.023.42.023a3.316 3.316 0 0 0 .9-.113 2.018 2.018 0 0 0 .678-.314 1.382 1.382 0 0 0 .407-.47 1.321 1.321 0 0 0 .145-.617 1.113 1.113 0 0 0-.424-.929z" class="cls-2" data-name="Caminho 419" transform="translate(-58.267 -134.77)"/>
            <path id="Caminho_420" d="M120.54 174.8a2.021 2.021 0 0 0-.7-.5 2.228 2.228 0 0 0-.9-.179 2.452 2.452 0 0 0-.945.179 2.14 2.14 0 0 0-.735.5 2.279 2.279 0 0 0-.479.778 2.85 2.85 0 0 0-.17 1 2.773 2.773 0 0 0 .174 1.011 2.261 2.261 0 0 0 .493.776 2.186 2.186 0 0 0 .757.5 2.576 2.576 0 0 0 .967.176 3.47 3.47 0 0 0 1.013-.147 2.509 2.509 0 0 0 .9-.511l-.506-.728a2.278 2.278 0 0 1-.646.364 2.061 2.061 0 0 1-.705.129 1.681 1.681 0 0 1-.479-.068 1.238 1.238 0 0 1-.414-.213 1.3 1.3 0 0 1-.319-.369 1.533 1.533 0 0 1-.181-.543h3.456c0-.059.011-.12.016-.185s0-.131 0-.194a2.87 2.87 0 0 0-.165-1 2.345 2.345 0 0 0-.432-.776zm-2.855 1.379a1.789 1.789 0 0 1 .138-.468 1.274 1.274 0 0 1 .251-.364 1.026 1.026 0 0 1 .366-.237 1.305 1.305 0 0 1 .486-.084 1.089 1.089 0 0 1 .8.3 1.459 1.459 0 0 1 .391.85z" class="cls-2" data-name="Caminho 420" transform="translate(-90.223 -134.748)"/>
            <path id="Caminho_421" d="M180.958 174.844a1.781 1.781 0 0 0-1.469-.678 2.273 2.273 0 0 0-1.659.694 2.359 2.359 0 0 0-.5.778 2.8 2.8 0 0 0 0 1.979 2.336 2.336 0 0 0 .5.778 2.26 2.26 0 0 0 .741.511 2.287 2.287 0 0 0 .918.183 1.864 1.864 0 0 0 .863-.185 1.827 1.827 0 0 0 .606-.5v.561h1.019v-4.69h-1.019zm-.041 2.367a1.4 1.4 0 0 1-.287.475 1.336 1.336 0 0 1-.452.314 1.392 1.392 0 0 1-.574.115 1.424 1.424 0 0 1-.594-.12 1.3 1.3 0 0 1-.452-.323 1.438 1.438 0 0 1-.278-.475 1.715 1.715 0 0 1-.1-.581 1.7 1.7 0 0 1 .1-.581 1.449 1.449 0 0 1 .278-.477 1.322 1.322 0 0 1 .452-.321 1.512 1.512 0 0 1 1.169 0 1.3 1.3 0 0 1 .452.314 1.411 1.411 0 0 1 .287.473 1.657 1.657 0 0 1 .1.6 1.635 1.635 0 0 1-.113.59z" class="cls-2" data-name="Caminho 421" transform="translate(-137.08 -134.782)"/>
            <path id="Caminho_422" d="M100.185 173.562a1.389 1.389 0 0 1-.486.093.8.8 0 0 1-.289-.05.6.6 0 0 1-.226-.154.755.755 0 0 1-.158-.271 1.226 1.226 0 0 1-.059-.4v-2.035h1.639v-.929h-1.64V168.4h-1.023v1.415H97v.929h.934v2.056a1.836 1.836 0 0 0 .452 1.375 1.675 1.675 0 0 0 1.236.441 2.232 2.232 0 0 0 .8-.136 3.208 3.208 0 0 0 .434-.206l-.348-.855a3.039 3.039 0 0 1-.323.143z" class="cls-2" data-name="Caminho 422" transform="translate(-75.046 -130.322)"/>
            <path id="Caminho_423" d="M144.023 174.119a1.846 1.846 0 0 0-.778.158 1.673 1.673 0 0 0-.581.579v-.615h-.924v4.678h.936v-2.566a1.552 1.552 0 0 1 .084-.531 1.13 1.13 0 0 1 .226-.4.927.927 0 0 1 .35-.244 1.171 1.171 0 0 1 .452-.084 1.992 1.992 0 0 1 .4.045 1.357 1.357 0 0 1 .206.054l.3-.977a2.35 2.35 0 0 0-.249-.063 2.663 2.663 0 0 0-.422-.034z" class="cls-2" data-name="Caminho 423" transform="translate(-109.674 -134.747)"/>
            <path id="Caminho_424" d="M206.755 174.119a1.839 1.839 0 0 0-.778.158 1.655 1.655 0 0 0-.581.579v-.615h-.927v4.678h.938v-2.566a1.611 1.611 0 0 1 .081-.531 1.172 1.172 0 0 1 .226-.4.927.927 0 0 1 .35-.244 1.17 1.17 0 0 1 .452-.084 1.992 1.992 0 0 1 .4.045 1.442 1.442 0 0 1 .206.054l.3-.977a2.257 2.257 0 0 0-.251-.063 2.61 2.61 0 0 0-.416-.034z" class="cls-2" data-name="Caminho 424" transform="translate(-158.225 -134.747)"/>
            <path id="Caminho_425" d="M222.618 166.26v2.467a1.781 1.781 0 0 0-1.469-.678 2.285 2.285 0 0 0-1.661.694 2.388 2.388 0 0 0-.5.778 2.8 2.8 0 0 0 0 1.979 2.365 2.365 0 0 0 .5.778 2.285 2.285 0 0 0 1.661.694 1.864 1.864 0 0 0 .863-.185 1.826 1.826 0 0 0 .606-.5v.561h1.019v-6.588zm-.041 4.834a1.4 1.4 0 0 1-.287.475 1.335 1.335 0 0 1-.452.314 1.391 1.391 0 0 1-.574.115 1.423 1.423 0 0 1-.594-.12 1.3 1.3 0 0 1-.441-.323 1.357 1.357 0 0 1-.278-.475 1.715 1.715 0 0 1-.1-.581 1.7 1.7 0 0 1 .1-.581 1.375 1.375 0 0 1 .278-.477 1.323 1.323 0 0 1 .441-.321 1.511 1.511 0 0 1 1.169 0 1.3 1.3 0 0 1 .452.314 1.411 1.411 0 0 1 .287.473 1.708 1.708 0 0 1 .1.6 1.686 1.686 0 0 1-.1.587z" class="cls-2" data-name="Caminho 425" transform="translate(-169.323 -128.665)"/>
            <path id="Caminho_426" d="M157.609 175.5a1.394 1.394 0 0 1 .463-.308 1.535 1.535 0 0 1 .581-.109 1.843 1.843 0 0 1 .64.109 1.55 1.55 0 0 1 .5.3l.49-.816a2.384 2.384 0 0 0-.622-.362 2.745 2.745 0 0 0-2.007 0 2.353 2.353 0 0 0-1.32 1.3 2.608 2.608 0 0 0 0 1.954 2.371 2.371 0 0 0 1.32 1.3 2.777 2.777 0 0 0 2.007 0 2.517 2.517 0 0 0 .622-.362l-.49-.816a1.546 1.546 0 0 1-.5.294 1.846 1.846 0 0 1-.64.111 1.537 1.537 0 0 1-.581-.111 1.357 1.357 0 0 1-.463-.308 1.413 1.413 0 0 1-.307-.473 1.694 1.694 0 0 1 0-1.217 1.445 1.445 0 0 1 .307-.486z" class="cls-2" data-name="Caminho 426" transform="translate(-120.819 -134.748)"/>
            <path id="Caminho_427" d="M247.992 192.32a.483.483 0 0 1 .19.038.517.517 0 0 1 .156.1.452.452 0 0 1 .1.152.425.425 0 0 1 .038.185.432.432 0 0 1-.038.185.466.466 0 0 1-.1.152.522.522 0 0 1-.156.1.481.481 0 0 1-.19.036.5.5 0 0 1-.194-.036.484.484 0 0 1-.262-.255.468.468 0 0 1-.036-.185.452.452 0 0 1 .036-.185.475.475 0 0 1 .1-.152.515.515 0 0 1 .356-.135zm0 .823a.334.334 0 0 0 .133-.027.358.358 0 0 0 .108-.075.351.351 0 0 0 .072-.109.346.346 0 0 0 .027-.136.328.328 0 0 0-.027-.133.337.337 0 0 0-.072-.111.4.4 0 0 0-.108-.072.334.334 0 0 0-.133-.027.347.347 0 0 0-.138.027.363.363 0 0 0-.109.072.341.341 0 0 0-.075.111.326.326 0 0 0-.025.133.344.344 0 0 0 .025.136.358.358 0 0 0 .075.109.333.333 0 0 0 .109.075.348.348 0 0 0 .138.036zm.027-.559a.185.185 0 0 1 .131.041.12.12 0 0 1 .045.1.115.115 0 0 1-.032.086.163.163 0 0 1-.095.043l.133.151h-.138l-.118-.147h-.016v.147h-.118v-.423zm-.093.1v.077h.09a.113.113 0 0 0 .043 0 .036.036 0 0 0 .014-.032.034.034 0 0 0-.009-.034.081.081 0 0 0-.043 0z" class="cls-2" data-name="Caminho 427" transform="translate(-191.528 -148.833)"/>
            <path id="Caminho_428" d="M21.763 17.636a17.6 17.6 0 0 1 6.691-13.822 17.634 17.634 0 1 0 0 27.645 17.6 17.6 0 0 1-6.691-13.823z" class="cls-3" data-name="Caminho 428" transform="translate(.127 .001)"/>
            <path id="Caminho_429" d="M246.648 117.886v-.516h-.208v-.14h.579v.14h-.226v.516zm1.105 0v-.452l-.149.393h-.163l-.147-.393v.452h-.156v-.656h.226l.163.421.163-.421h.226v.656z" class="cls-4" data-name="Caminho 429" transform="translate(-190.708 -90.722)"/>
            <path id="Caminho_430" d="M137.251 0a17.542 17.542 0 0 0-10.931 3.805 17.621 17.621 0 0 1 0 27.645A17.634 17.634 0 1 0 137.251 0z" class="cls-4" data-name="Caminho 430" transform="translate(-97.739)"/>
        </g>
    </g>
</svg>
