<svg xmlns="http://www.w3.org/2000/svg" xmlns:xlink="http://www.w3.org/1999/xlink" width="57.208" height="18.485" viewBox="0 0 57.208 18.485">
    <defs>
        <style>
            .cls-1{fill:url(#linear-gradient)}.cls-2{fill:url(#linear-gradient-2)}.cls-3{fill:url(#linear-gradient-3)}.cls-4{fill:url(#linear-gradient-4)}
        </style>
        <linearGradient id="linear-gradient" x1="-2.251" x2=".982" y1=".518" y2=".499" gradientUnits="objectBoundingBox">
            <stop offset="0" stop-color="#262860"/>
            <stop offset="1" stop-color="#3d429b"/>
        </linearGradient>
        <linearGradient id="linear-gradient-2" x1="-1.74" x2="2.081" y1=".512" y2=".492" xlink:href="#linear-gradient"/>
        <linearGradient id="linear-gradient-3" x1=".147" x2="2.623" y1=".502" y2=".482" xlink:href="#linear-gradient"/>
        <linearGradient id="linear-gradient-4" x1="-1.967" x2="4.38" y1=".508" y2=".488" xlink:href="#linear-gradient"/>
    </defs>
    <g id="visa">
        <path id="Caminho_431" d="M449.452 38.935h-4.306c-.157-.757-.327-1.5-.46-2.246-.055-.309-.154-.43-.5-.422-1.727.022-3.454.017-5.182 0a.393.393 0 0 0-.445.317c-.238.713-.5 1.417-.764 2.119-.036.1-.155.226-.237.227-1.557.014-3.113.009-4.716.009.292-.7.569-1.372.85-2.043l6.023-14.365a2.121 2.121 0 0 1 2.209-1.472h3.78c.126.584.251 1.161.372 1.736q1.478 7.1 2.963 14.2c.127.606.277 1.208.415 1.812zm-5.637-6.351l-1.365-6.545-.055-.012-2.376 6.554z" class="cls-1" data-name="Caminho 431" transform="translate(-392.244 -20.739)"/>
        <path id="Caminho_432" d="M321.042 18.026c.568.106 1.141.192 1.7.322.513.118 1.017.283 1.563.439l-.807 3.77c-.72-.211-1.408-.454-2.111-.61a6.038 6.038 0 0 0-2.927-.025 2.982 2.982 0 0 0-1.1.586 1 1 0 0 0-.031 1.584 6.871 6.871 0 0 0 1.179.845c.943.567 1.932 1.056 2.85 1.665a4.213 4.213 0 0 1 2.031 3.018 5.382 5.382 0 0 1-2.544 5.5 8.722 8.722 0 0 1-4.1 1.325 14.655 14.655 0 0 1-5.984-.679c-.131-.043-.259-.1-.385-.149a1.139 1.139 0 0 1-.129-.079l.833-3.906c.333.145.644.29.963.422a8.334 8.334 0 0 0 4.721.589 3.35 3.35 0 0 0 1.215-.508 1.287 1.287 0 0 0 .145-2.118 11.442 11.442 0 0 0-1.558-1.025c-.831-.506-1.712-.936-2.5-1.5a4.179 4.179 0 0 1-1.874-2.978 5.086 5.086 0 0 1 1.985-4.7 8.341 8.341 0 0 1 4.434-1.722 2.583 2.583 0 0 0 .267-.063z" class="cls-2" data-name="Caminho 432" transform="translate(-282.596 -18.02)"/>
        <path id="Caminho_433" d="M70.006 21.06l-.7 1.689q-3.326 7.933-6.644 15.866a.442.442 0 0 1-.49.317c-1.4-.012-2.8-.016-4.2 0-.3 0-.394-.1-.461-.366-1.187-4.622-2.392-9.239-3.565-13.864a2.433 2.433 0 0 0-1.453-1.784 23.251 23.251 0 0 0-4.005-1.292c-.061-.014-.121-.03-.178-.044.006-.536.006-.536.517-.536h7.345a2.127 2.127 0 0 1 2.217 1.825c.622 3.254 1.23 6.511 1.844 9.765.026.143.057.284.1.485a2.876 2.876 0 0 0 .136-.26q2.28-5.768 4.553-11.541a.368.368 0 0 1 .411-.28c1.42.011 2.841.005 4.261.006.091 0 .182.007.312.014z" class="cls-3" data-name="Caminho 433" transform="translate(-48.31 -20.721)"/>
        <path id="Caminho_434" d="M236.26 39.134c1.278-5.977 2.549-11.914 3.823-17.864h4.639l-.572 2.684L241 38.7c-.073.342-.193.451-.548.443-1.272-.024-2.544-.01-3.815-.01z" class="cls-4" data-name="Caminho 434" transform="translate(-216.418 -20.927)"/>
    </g>
</svg>
