<svg xmlns="http://www.w3.org/2000/svg" width="15.321" height="18.857" viewBox="0 0 15.321 18.857">
    <defs>
        <style>
            .cls-1{fill:#f9b508}
        </style>
    </defs>
    <g id="empresa" transform="translate(-224 -176)">
        <path id="Caminho_42" d="M304 384h3.536v3.536H304zm0 0" class="cls-1" data-name="Caminho 42" transform="translate(-74.107 -192.679)"/>
        <path id="Caminho_46" d="M224 176v18.857h4.714v-4.125a.589.589 0 0 1 .589-.589h4.714a.589.589 0 0 1 .589.589v4.125h4.714V176zm6.482 11.2a1.768 1.768 0 0 1-1.768 1.768h-1.179a1.768 1.768 0 0 1-1.768-1.768v-1.179a1.768 1.768 0 0 1 1.768-1.768h1.179a1.768 1.768 0 0 1 1.768 1.768zm0-6.482a1.768 1.768 0 0 1-1.768 1.768h-1.179a1.768 1.768 0 0 1-1.768-1.768v-1.179a1.768 1.768 0 0 1 1.768-1.768h1.179a1.768 1.768 0 0 1 1.768 1.768zm7.071 6.482a1.768 1.768 0 0 1-1.768 1.768h-1.179a1.768 1.768 0 0 1-1.768-1.768v-1.179a1.768 1.768 0 0 1 1.768-1.768h1.179a1.768 1.768 0 0 1 1.768 1.768zm0-6.482a1.768 1.768 0 0 1-1.768 1.768h-1.179a1.768 1.768 0 0 1-1.768-1.768v-1.179a1.768 1.768 0 0 1 1.768-1.768h1.179a1.768 1.768 0 0 1 1.768 1.768zm0 0" class="cls-1" data-name="Caminho 46"/>
        <path id="Caminho_47" d="M360.589 216h1.179a.589.589 0 0 1 .589.589v1.179a.589.589 0 0 1-.589.589h-1.179a.589.589 0 0 1-.589-.589v-1.179a.589.589 0 0 1 .589-.589zm0 0" class="cls-1" data-name="Caminho 47" transform="translate(-125.982 -37.054)"/>
        <path id="Caminho_49" d="M360.589 304h1.179a.589.589 0 0 1 .589.589v1.179a.589.589 0 0 1-.589.589h-1.179a.589.589 0 0 1-.589-.589v-1.179a.589.589 0 0 1 .589-.589zm0 0" class="cls-1" data-name="Caminho 49" transform="translate(-125.982 -118.571)"/>
        <path id="Caminho_50" d="M264.589 216h1.179a.589.589 0 0 1 .589.589v1.179a.589.589 0 0 1-.589.589h-1.179a.589.589 0 0 1-.589-.589v-1.179a.589.589 0 0 1 .589-.589zm0 0" class="cls-1" data-name="Caminho 50" transform="translate(-37.054 -37.054)"/>
        <path id="Caminho_51" d="M264.589 304h1.179a.589.589 0 0 1 .589.589v1.179a.589.589 0 0 1-.589.589h-1.179a.589.589 0 0 1-.589-.589v-1.179a.589.589 0 0 1 .589-.589zm0 0" class="cls-1" data-name="Caminho 51" transform="translate(-37.054 -118.571)"/>
    </g>
</svg>
