<svg xmlns="http://www.w3.org/2000/svg" width="18.562" height="18.564" viewBox="0 0 18.562 18.564">
    <defs>
        <style>
            .cls-1{fill:#f9b508}
        </style>
    </defs>
    <g id="ferramenta" transform="translate(-.002)">
        <g id="Grupo_12" data-name="Grupo 12" transform="translate(.002)">
            <g id="Grupo_11" data-name="Grupo 11">
                <circle id="Elipse_3" cx="1.6" cy="1.6" r="1.6" class="cls-1" data-name="Elipse 3" transform="translate(7.682 7.682)"/>
                <path id="Caminho_41" d="M18.188 7.7l-2.236-.419a6.879 6.879 0 0 0-.535-1.294l1.294-1.892a.48.48 0 0 0-.055-.588l-1.6-1.6a.48.48 0 0 0-.587-.055L12.58 3.147a6.913 6.913 0 0 0-1.334-.547L10.829.377A.48.48 0 0 0 10.375 0H8.119a.481.481 0 0 0-.455.377l-.422 2.247a6.9 6.9 0 0 0-1.28.534L4.094 1.88a.48.48 0 0 0-.588.055l-1.6 1.6a.481.481 0 0 0-.055.588L3.141 6a6.932 6.932 0 0 0-.526 1.279L.379 7.7A.481.481 0 0 0 0 8.151v2.256a.482.482 0 0 0 .377.455l2.235.419a6.916 6.916 0 0 0 .538 1.305l-1.27 1.86a.479.479 0 0 0 .055.588l1.6 1.6a.481.481 0 0 0 .588.056l1.858-1.272a6.944 6.944 0 0 0 1.267.528l.421 2.247a.48.48 0 0 0 .455.377h2.256a.48.48 0 0 0 .455-.377l.417-2.225a6.988 6.988 0 0 0 1.32-.538l1.882 1.288a.479.479 0 0 0 .588-.056l1.594-1.594a.48.48 0 0 0 .056-.588l-1.285-1.88a6.942 6.942 0 0 0 .546-1.321l2.234-.419a.481.481 0 0 0 .376-.455V8.152a.478.478 0 0 0-.375-.452zm-8.9 5.458a3.872 3.872 0 1 1 3.872-3.872 3.872 3.872 0 0 1-3.876 3.868z" class="cls-1" data-name="Caminho 41" transform="translate(-.002)"/>
            </g>
        </g>
    </g>
</svg>
