<svg xmlns="http://www.w3.org/2000/svg" width="18.781" height="18.183" viewBox="0 0 18.781 18.183">
    <defs>
        <style>
            .cls-1{fill:#f9b508}
        </style>
    </defs>
    <g id="home" transform="translate(0 -4.89)">
        <path id="Caminho_53" d="M18.546 13.761a.9.9 0 0 0-.073-1.281l-8.394-7.344a1.046 1.046 0 0 0-1.365.016l-8.422 7.72a.89.89 0 0 0-.041 1.28l.211.22a.921.921 0 0 0 1.264.1l.629-.564v8.252a.916.916 0 0 0 .916.916h3.284a.916.916 0 0 0 .916-.916v-5.777h4.187v5.773a.866.866 0 0 0 .861.916H16a.916.916 0 0 0 .916-.916V14.02l.388.341c.214.188.664.037 1-.338z" class="cls-1" data-name="Caminho 53"/>
    </g>
</svg>
