<svg xmlns="http://www.w3.org/2000/svg" width="22" height="16" viewBox="0 0 22 16">
  <g id="Icon_material-person-add" data-name="Icon material-person-add" transform="translate(-1.5 -6)" fill="none" stroke-linecap="round">
    <path d="M15.5,14a4,4,0,1,0-4-4A4,4,0,0,0,15.5,14Zm-9-2V9h-2v3h-3v2h3v3h2V14h3V12Zm9,3.288c-2.67,0-8,2.052-8,4.712v2h16V20C23.5,17.34,18.17,15.288,15.5,15.288Z" stroke="none"/>
    <path d="M 15.5 7.5 C 14.12150001525879 7.5 13 8.621500015258789 13 10 C 13 11.37849998474121 14.12150001525879 12.5 15.5 12.5 C 16.87849998474121 12.5 18 11.37849998474121 18 10 C 18 8.621500015258789 16.87849998474121 7.5 15.5 7.5 M 15.5 16.78808975219727 C 14.55348014831543 16.78808975219727 12.79708957672119 17.16238975524902 11.177490234375 17.98419952392578 C 9.673299789428711 18.74744033813477 9 19.54658889770508 9 20 L 9 20.5 L 22 20.5 L 22 20 C 22 19.54658889770508 21.32670021057129 18.74744033813477 19.822509765625 17.98419952392578 C 18.20290946960449 17.16238975524902 16.44651985168457 16.78808975219727 15.5 16.78808975219727 M 15.5 6 C 17.70999908447266 6 19.5 7.790000915527344 19.5 10 C 19.5 12.21000003814697 17.70999908447266 14 15.5 14 C 13.28999996185303 14 11.5 12.21000003814697 11.5 10 C 11.5 7.790000915527344 13.28999996185303 6 15.5 6 Z M 4.5 9 L 6.5 9 L 6.5 12 L 9.5 12 L 9.5 14 L 6.5 14 L 6.5 17 L 4.5 17 L 4.5 14 L 1.5 14 L 1.5 12 L 4.5 12 L 4.5 9 Z M 15.5 15.28808975219727 C 18.17000007629395 15.28808975219727 23.5 17.34000015258789 23.5 20 L 23.5 22 L 7.5 22 L 7.5 20 C 7.5 17.34000015258789 12.82999992370605 15.28808975219727 15.5 15.28808975219727 Z" stroke="none" fill="#4e306f"/>
  </g>
</svg>
