<svg xmlns="http://www.w3.org/2000/svg" width="22.101" height="22.101" viewBox="0 0 22.101 22.101">
    <defs>
        <style>
            .cls-1{fill:#4e306f}
        </style>
    </defs>
    <g id="_024-download" data-name="024-download" transform="rotate(180 11.05 11.05)">
        <g id="Grupo_80" data-name="Grupo 80" transform="translate(3.884 5.18)">
            <g id="Grupo_79" data-name="Grupo 79">
                <path id="Caminho_45" d="M103.668 9.065h-3.237v7.209a.648.648 0 0 1-.647.647h-5.267a.648.648 0 0 1-.647-.647V9.065h-3.238A.648.648 0 0 1 90.135 8L96.61.233a.648.648 0 0 1 .992 0L104.163 8a.648.648 0 0 1-.495 1.065zm-6.558-7.41l-5.1 6.115h2.5a.648.648 0 0 1 .647.647v7.209h3.971V8.417a.648.648 0 0 1 .647-.647h2.491z" class="cls-1" data-name="Caminho 45" transform="translate(-89.984)"/>
            </g>
        </g>
        <g id="Grupo_82" data-name="Grupo 82">
            <g id="Grupo_81" data-name="Grupo 81">
                <path id="Caminho_46" d="M21.454 311.065h-2.59a.647.647 0 0 1-.647-.647v-4.532H3.885v4.532a.647.647 0 0 1-.647.647H.647a.647.647 0 0 1-.647-.648v-6.475A1.945 1.945 0 0 1 1.942 302h18.217a1.945 1.945 0 0 1 1.942 1.943v6.475a.647.647 0 0 1-.647.647zm-.647-7.122a.648.648 0 0 0-.647-.647H1.942a.648.648 0 0 0-.647.647v5.827H2.59v-4.532a.647.647 0 0 1 .647-.647h15.627a.647.647 0 0 1 .647.647v4.532h1.295z" class="cls-1" data-name="Caminho 46" transform="translate(0 -302)"/>
            </g>
        </g>
    </g>
</svg>
