<svg xmlns="http://www.w3.org/2000/svg" width="17.534" height="17.534" viewBox="0 0 17.534 17.534">
    <defs>
        <style>
            .cls-1{fill:#fff}
        </style>
    </defs>
    <g id="_024-download" transform="rotate(180 8.767 8.767)">
        <g id="Grupo_80" transform="translate(3.082 4.11)">
            <g id="Grupo_79">
                <path id="Caminho_45" d="M100.841 7.192h-2.569v5.719a.514.514 0 0 1-.514.514h-4.177a.514.514 0 0 1-.514-.514V7.192H90.5a.514.514 0 0 1-.395-.843L95.241.185a.514.514 0 0 1 .787 0l5.205 6.164a.514.514 0 0 1-.392.843zm-5.2-5.879L91.6 6.164h1.985a.514.514 0 0 1 .514.514V12.4h3.151V6.678a.514.514 0 0 1 .514-.514h1.976z" class="cls-1" transform="translate(-89.984)"/>
            </g>
        </g>
        <g id="Grupo_82">
            <g id="Grupo_81">
                <path id="Caminho_46" d="M17.02 309.192h-2.054a.514.514 0 0 1-.514-.514v-3.6H3.082v3.6a.514.514 0 0 1-.514.514H.514a.514.514 0 0 1-.514-.514v-5.137A1.543 1.543 0 0 1 1.541 302h14.452a1.543 1.543 0 0 1 1.541 1.541v5.137a.514.514 0 0 1-.514.514zm-.514-5.651a.514.514 0 0 0-.514-.514H1.541a.514.514 0 0 0-.514.514v4.623h1.028v-3.6a.514.514 0 0 1 .514-.514h12.4a.514.514 0 0 1 .514.514v3.6h1.027z" class="cls-1" transform="translate(0 -302)"/>
            </g>
        </g>
    </g>
</svg>
