<svg xmlns="http://www.w3.org/2000/svg" id="_036-zoom" width="22.103" height="21.613" data-name="036-zoom" viewBox="0 0 22.103 21.613">
    <defs>
        <style>
            .cls-1{fill:#00b0b0}
        </style>
    </defs>
    <g id="Grupo_153" data-name="Grupo 153">
        <g id="Grupo_152" data-name="Grupo 152">
            <path id="Caminho_82" d="M21.623 18.458L17.9 14.814a1.807 1.807 0 0 0-2.088-.251l-1-.981a8.109 8.109 0 0 0-.44-11.175 8.562 8.562 0 0 0-11.9 0 8.111 8.111 0 0 0 0 11.64 8.569 8.569 0 0 0 11.428.431l1 .981a1.708 1.708 0 0 0 .25 2.041l3.726 3.644a1.883 1.883 0 0 0 2.616-.128 1.986 1.986 0 0 0 .605-1.257 1.63 1.63 0 0 0-.474-1.301zm-8.174-5.306a7.245 7.245 0 0 1-10.072 0 6.864 6.864 0 0 1 0-9.849 7.245 7.245 0 0 1 10.072 0 6.864 6.864 0 0 1 0 9.848zm7.127 6.969a.6.6 0 0 1-.785.128l-3.726-3.644a.565.565 0 0 1 .131-.767.589.589 0 0 1 .785-.128l3.726 3.644a.565.565 0 0 1-.131.767z" class="cls-1" data-name="Caminho 82"/>
        </g>
    </g>
    <path id="Caminho_320" d="M6.627 2.2a.378.378 0 0 0-.277-.114h-2.7v-2.7a.378.378 0 0 0-.114-.277A.378.378 0 0 0 3.262-1h-.783a.377.377 0 0 0-.279.114.378.378 0 0 0-.114.277v2.7h-2.7a.378.378 0 0 0-.272.109.377.377 0 0 0-.114.279v.783a.377.377 0 0 0 .114.277.377.377 0 0 0 .277.114h2.7v2.7a.39.39 0 0 0 .391.391h.783a.39.39 0 0 0 .391-.391v-2.7h2.7a.39.39 0 0 0 .391-.391v-.783a.377.377 0 0 0-.12-.279z" class="cls-1" data-name="Caminho 320" transform="translate(5.77 5.229)"/>
</svg>
