<svg xmlns="http://www.w3.org/2000/svg" width="10.596" height="6.525" viewBox="0 0 10.596 6.525">
    <g id="prefix__seta" transform="rotate(90 5.298 5.298)">
        <path id="prefix__Caminho_39" fill="#535252" d="M6.279 4.686L1.947.258A.781.781 0 0 0 1.349 0a.781.781 0 0 0-.6.258l-.5.51A.843.843 0 0 0 0 1.381.881.881 0 0 0 .246 2l3.229 3.3L.246 8.6A.843.843 0 0 0 0 9.216a.882.882 0 0 0 .246.619l.505.51a.8.8 0 0 0 .6.252.8.8 0 0 0 .6-.252l4.328-4.428a.882.882 0 0 0 .246-.617.843.843 0 0 0-.246-.614z" data-name="Caminho 39"/>
    </g>
</svg>
