<svg xmlns="http://www.w3.org/2000/svg" width="15.827" height="14.151" viewBox="0 0 15.827 14.151">
    <defs>
        <style>
            .cls-1{fill:#f47820}
        </style>
    </defs>
    <g id="Camada_2" transform="translate(-.032)">
        <g id="Camada_1" transform="translate(.032)">
            <g id="alert_colorido">
                <path id="Caminho_1712" d="M13.487 14.151H2.4a2.383 2.383 0 0 1-2.035-3.6l5.364-9.374A2.379 2.379 0 0 1 7.8 0h.03a2.352 2.352 0 0 1 2.017 1.164l5.667 9.386a2.389 2.389 0 0 1 .344 1.229 2.431 2.431 0 0 1-.313 1.171 2.365 2.365 0 0 1-2.058 1.201zm-5.7-1.377h5.688a1 1 0 0 0 .868-1.515L8.646 1.87a.967.967 0 0 0-.854-.492 1 1 0 0 0-.885.489l-5.361 9.381a1 1 0 0 0 .854 1.526z" class="cls-1" transform="translate(-.032)"/>
                <path id="União_2" d="M20.93 18.2a.84.84 0 1 1 .6-.247.847.847 0 0 1-.6.247zm0-3.388a.85.85 0 0 1-.847-.847v-3.4a.85.85 0 0 1 1.691 0v3.388a.85.85 0 0 1-.85.847z" class="cls-1" transform="translate(-13.177 -6.427)"/>
            </g>
        </g>
    </g>
</svg>
